<svg xmlns="http://www.w3.org/2000/svg" width="196" height="50" viewBox="0 0 196 50">
  <metadata><?xpacket begin="﻿" id="W5M0MpCehiHzreSzNTczkc9d"?>
<x:xmpmeta xmlns:x="adobe:ns:meta/" x:xmptk="Adobe XMP Core 5.6-c138 79.159824, 2016/09/14-01:09:01        ">
   <rdf:RDF xmlns:rdf="http://www.w3.org/1999/02/22-rdf-syntax-ns#">
      <rdf:Description rdf:about=""/>
   </rdf:RDF>
</x:xmpmeta>
                                                                                                    
                                                                                                    
                                                                                                    
                                                                                                    
                                                                                                    
                                                                                                    
                                                                                                    
                                                                                                    
                                                                                                    
                                                                                                    
                                                                                                    
                                                                                                    
                                                                                                    
                                                                                                    
                                                                                                    
                                                                                                    
                                                                                                    
                                                                                                    
                                                                                                    
                                                                                                    
                           
<?xpacket end="w"?></metadata>
<defs>
    <style>
      .cls-1 {
        fill: #fff;
      }

      .cls-1, .cls-2, .cls-3 {
        fill-rule: evenodd;
      }

      .cls-2 {
        fill: #fcd90b;
      }

      .cls-3 {
        fill: #26211d;
      }
    </style>
  </defs>
  <path id="Legal_Advisor" data-name="Legal Advisor" class="cls-1" d="M64.482,44H70.54V43.168h-5.1V34.9H64.482V44Zm13.325-3.419a3.7,3.7,0,0,0-.429-1.8,3.135,3.135,0,0,0-1.183-1.229,3.306,3.306,0,0,0-1.7-.442,3.341,3.341,0,0,0-1.71.442,3.155,3.155,0,0,0-1.2,1.235,3.663,3.663,0,0,0-.436,1.794,3.537,3.537,0,0,0,.455,1.794,3.233,3.233,0,0,0,1.267,1.242,3.8,3.8,0,0,0,1.865.448,3.846,3.846,0,0,0,1.5-.286,2.928,2.928,0,0,0,1.138-.832l-0.52-.6a2.554,2.554,0,0,1-.923.67,2.95,2.95,0,0,1-1.17.227,2.718,2.718,0,0,1-1.872-.657,2.444,2.444,0,0,1-.819-1.723h5.72ZM74.492,37.9a2.342,2.342,0,0,1,1.671.63,2.477,2.477,0,0,1,.76,1.645H72.074a2.475,2.475,0,0,1,.761-1.645,2.325,2.325,0,0,1,1.657-.63h0Zm10.647-.741v1.313a2.835,2.835,0,0,0-1.131-1.014,3.469,3.469,0,0,0-1.573-.351,3.671,3.671,0,0,0-1.755.416,3.1,3.1,0,0,0-1.228,1.17A3.292,3.292,0,0,0,79,40.412a3.326,3.326,0,0,0,.449,1.723,3.117,3.117,0,0,0,1.235,1.183,3.634,3.634,0,0,0,1.748.422,3.476,3.476,0,0,0,1.541-.338,2.781,2.781,0,0,0,1.124-.988v0.871a2.545,2.545,0,0,1-.611,1.879,2.627,2.627,0,0,1-1.911.6,4.493,4.493,0,0,1-1.489-.247,3.513,3.513,0,0,1-1.2-.689l-0.468.7a3.7,3.7,0,0,0,1.384.773,5.736,5.736,0,0,0,1.8.28,3.523,3.523,0,0,0,2.567-.839,3.482,3.482,0,0,0,.852-2.581V37.162H85.139Zm-2.613,5.759a2.763,2.763,0,0,1-1.333-.319,2.309,2.309,0,0,1-.923-0.89,2.715,2.715,0,0,1,0-2.6,2.267,2.267,0,0,1,.923-0.884,3,3,0,0,1,2.678.006,2.327,2.327,0,0,1,.923.884,2.51,2.51,0,0,1,.331,1.294,2.544,2.544,0,0,1-.331,1.3,2.3,2.3,0,0,1-.93.89,2.8,2.8,0,0,1-1.339.319h0ZM91,37.11a4.859,4.859,0,0,0-1.534.24,3.693,3.693,0,0,0-1.248.683l0.416,0.689a3.145,3.145,0,0,1,1.027-.592,3.668,3.668,0,0,1,1.248-.215,2.041,2.041,0,0,1,1.443.462,1.753,1.753,0,0,1,.494,1.346v0.416H90.677a3.086,3.086,0,0,0-2.008.533,1.878,1.878,0,0,0,.046,2.847,2.813,2.813,0,0,0,1.82.546,3.206,3.206,0,0,0,1.436-.3,2.115,2.115,0,0,0,.916-0.832V44h0.884V39.762a2.588,2.588,0,0,0-.715-1.983A2.9,2.9,0,0,0,91,37.11h0Zm-0.325,6.227a2.071,2.071,0,0,1-1.274-.345,1.118,1.118,0,0,1-.455-0.943q0-1.222,1.755-1.222h2.145v1.118a2.135,2.135,0,0,1-.832,1.034,2.431,2.431,0,0,1-1.339.358h0ZM96.28,44H97.2V34.354H96.28V44Zm13.9,0h1.014l-4.16-9.1h-0.949l-4.16,9.1h1l1.092-2.431h5.07Zm-5.811-3.211,2.184-4.888,2.184,4.888h-4.368Zm13.391-6.435v4.108a2.849,2.849,0,0,0-1.1-1.008,3.234,3.234,0,0,0-1.5-.345,3.51,3.51,0,0,0-1.742.435,3.112,3.112,0,0,0-1.222,1.229,3.915,3.915,0,0,0,0,3.614,3.153,3.153,0,0,0,1.222,1.235,3.469,3.469,0,0,0,1.742.442,3.219,3.219,0,0,0,1.54-.364,2.818,2.818,0,0,0,1.1-1.053V44h0.884V34.354h-0.923Zm-2.522,8.892a2.581,2.581,0,0,1-1.307-.332,2.351,2.351,0,0,1-.91-0.942,3.088,3.088,0,0,1,0-2.782,2.352,2.352,0,0,1,.91-0.942,2.581,2.581,0,0,1,1.307-.332,2.556,2.556,0,0,1,1.293.332,2.352,2.352,0,0,1,.91.942,3.08,3.08,0,0,1,0,2.782,2.351,2.351,0,0,1-.91.942,2.556,2.556,0,0,1-1.293.332h0Zm10.854-6.084L123.5,42.986l-2.561-5.824h-0.962L123.007,44h0.949L127,37.162h-0.91ZM128.3,44h0.923V37.162H128.3V44Zm0.468-8.333a0.666,0.666,0,0,0,.676-0.676,0.6,0.6,0,0,0-.195-0.449,0.665,0.665,0,0,0-.481-0.188,0.655,0.655,0,0,0-.481.2,0.624,0.624,0,0,0-.195.455,0.638,0.638,0,0,0,.195.468,0.655,0.655,0,0,0,.481.2h0Zm4.862,8.4a3.557,3.557,0,0,0,2.074-.526,1.654,1.654,0,0,0,.747-1.423,1.467,1.467,0,0,0-.351-1.04,1.925,1.925,0,0,0-.845-0.533,11.945,11.945,0,0,0-1.313-.312A10.206,10.206,0,0,1,132.9,40a1.557,1.557,0,0,1-.63-0.344,0.809,0.809,0,0,1-.254-0.624,0.956,0.956,0,0,1,.449-0.819A2.336,2.336,0,0,1,133.8,37.9a3.451,3.451,0,0,1,2.015.585l0.4-.741a3.653,3.653,0,0,0-1.092-.462,5.163,5.163,0,0,0-1.326-.175,3.212,3.212,0,0,0-1.989.546,1.693,1.693,0,0,0-.715,1.4,1.534,1.534,0,0,0,.358,1.079,1.964,1.964,0,0,0,.864.552,11.475,11.475,0,0,0,1.339.319,8.959,8.959,0,0,1,1,.215,1.631,1.631,0,0,1,.624.325,0.741,0.741,0,0,1,.247.591,0.93,0.93,0,0,1-.448.826,2.584,2.584,0,0,1-1.385.292,4.289,4.289,0,0,1-1.352-.215,3.5,3.5,0,0,1-1.079-.553l-0.416.728a3.427,3.427,0,0,0,1.19.6,5.245,5.245,0,0,0,1.592.24h0Zm7.319,0a3.551,3.551,0,0,0,1.781-.448,3.223,3.223,0,0,0,1.242-1.242,3.816,3.816,0,0,0,0-3.588,3.18,3.18,0,0,0-1.242-1.235,3.809,3.809,0,0,0-3.562,0,3.235,3.235,0,0,0-1.248,1.235,3.764,3.764,0,0,0,0,3.588,3.28,3.28,0,0,0,1.248,1.242,3.557,3.557,0,0,0,1.781.448h0Zm0-.819a2.578,2.578,0,0,1-1.306-.332,2.351,2.351,0,0,1-.91-0.942,3.08,3.08,0,0,1,0-2.782,2.352,2.352,0,0,1,.91-0.942,2.74,2.74,0,0,1,2.613,0,2.31,2.31,0,0,1,.9.942,3.139,3.139,0,0,1,0,2.782,2.309,2.309,0,0,1-.9.942,2.581,2.581,0,0,1-1.307.332h0Zm6.24-4.745V37.162H146.3V44h0.923V40.516a2.643,2.643,0,0,1,.611-1.859,2.185,2.185,0,0,1,1.69-.663l0.221,0.013v-0.9a3.291,3.291,0,0,0-1.592.351,2.239,2.239,0,0,0-.969,1.04h0Z"/>
  <path id="Crypterio" class="cls-1" d="M74.36,26.36a10.625,10.625,0,0,0,8.61-3.57l-2.94-3.15c-1.65,1.5-3.12,2.46-5.52,2.46-3.6,0-6.09-3-6.09-6.6,0-3.66,2.55-6.6,6.09-6.6a7.269,7.269,0,0,1,5.4,2.34l2.76-3.18A11.077,11.077,0,0,0,63.59,15.5,10.614,10.614,0,0,0,74.36,26.36ZM84.98,26h4.56V20.06c0-3.84,1.86-5.67,4.89-5.67h0.24V9.621c-2.7-.12-4.2,1.32-5.13,3.54V9.921H84.98V26Zm15.179,4.89c2.73,0,4.05-1.23,5.28-4.5l6.18-16.469h-4.74l-3.51,10.95L99.71,9.921H94.88l6.3,16.139a1.523,1.523,0,0,1-1.59,1.05,4.144,4.144,0,0,1-1.95-.63l-1.53,3.3A7.549,7.549,0,0,0,100.159,30.89Zm12.96-.09h4.56V23.9a6.175,6.175,0,0,0,5.01,2.4c3.81,0,7.32-2.94,7.32-8.31,0-5.43-3.57-8.37-7.32-8.37a5.905,5.905,0,0,0-5.01,2.61V9.921h-4.56V30.8Zm8.4-8.37c-2.13,0-3.9-1.77-3.9-4.44,0-2.73,1.77-4.5,3.9-4.5s3.93,1.77,3.93,4.44C125.449,20.69,123.649,22.43,121.519,22.43Zm16.08,3.84a6.723,6.723,0,0,0,3.6-.93V21.68a4.638,4.638,0,0,1-2.25.57,1.321,1.321,0,0,1-1.47-1.56v-6.87h3.78v-3.9h-3.78V5.811h-4.56v4.11H131v3.9h1.92v7.62C132.919,25.16,134.809,26.27,137.6,26.27Zm12.99,0.09a8.042,8.042,0,0,0,6.569-3l-2.61-2.31a5.269,5.269,0,0,1-3.9,1.65,3.729,3.729,0,0,1-3.929-3.15h11.189c0.03-.42.06-0.84,0.06-1.2,0-4.56-2.46-8.73-7.829-8.73-4.68,0-7.95,3.78-7.95,8.37A8.057,8.057,0,0,0,150.589,26.36Zm-3.93-9.66c0.36-2.07,1.59-3.42,3.48-3.42,1.919,0,3.119,1.38,3.389,3.42h-6.869Zm13.5,9.3h4.559V20.06c0-3.84,1.86-5.67,4.89-5.67h0.24V9.621c-2.7-.12-4.2,1.32-5.13,3.54V9.921h-4.559V26Zm11.43-17.849h4.8V4.1h-4.8v4.05ZM171.709,26h4.559V9.921h-4.559V26Zm15.539,0.36a8.376,8.376,0,1,0-8.67-8.37A8.439,8.439,0,0,0,187.248,26.36Zm0.06-3.93a4.272,4.272,0,0,1-4.23-4.44,4.137,4.137,0,0,1,4.17-4.44,4.272,4.272,0,0,1,4.23,4.44A4.137,4.137,0,0,1,187.308,22.43Z"/>
  <path class="cls-2" d="M25,0A25,25,0,1,1,0,25,25,25,0,0,1,25,0Zm0,4A21,21,0,1,1,4,25,21,21,0,0,1,25,4Zm0,2A19,19,0,1,1,6,25,19,19,0,0,1,25,6Z"/>
  <path id="C" class="cls-3" d="M29.225,19.505a5.107,5.107,0,0,0-3.463-1.427,4.678,4.678,0,0,0-2.545.749,5.135,5.135,0,0,0-1.879,2.2,6.625,6.625,0,0,0-.382,1.055h2.089v1.957H20.663c-0.005.133-.018,0.26-0.018,0.4A9.966,9.966,0,0,0,20.771,26h2.274v1.957h-1.7a7.8,7.8,0,0,0,.892,1.609,4.953,4.953,0,0,0,4.171,2.147,5.952,5.952,0,0,0,3.154-.928,10.979,10.979,0,0,0,3.267-3.09L35,29.288a16.073,16.073,0,0,1-3.867,3.977A10.936,10.936,0,0,1,25.11,35a9.587,9.587,0,0,1-8.56-4.974,10.193,10.193,0,0,1-.867-2.067H13.474L12.649,26h2.638a11.067,11.067,0,0,1-.068-1.117c0-.286.029-0.562,0.05-0.84H11.824L11,22.085h4.593a9.729,9.729,0,0,1,.923-2.254,9.3,9.3,0,0,1,3.53-3.554A9.873,9.873,0,0,1,25.026,15a9.931,9.931,0,0,1,4.89,1.164l0.462-.831h1.989l1.919,6.942-2.608.748A13,13,0,0,0,29.225,19.505Z"/>
</svg>
