<svg xmlns="http://www.w3.org/2000/svg" width="196" height="50" viewBox="0 0 196 50">
  <metadata><?xpacket begin="﻿" id="W5M0MpCehiHzreSzNTczkc9d"?>
<x:xmpmeta xmlns:x="adobe:ns:meta/" x:xmptk="Adobe XMP Core 5.6-c138 79.159824, 2016/09/14-01:09:01        ">
   <rdf:RDF xmlns:rdf="http://www.w3.org/1999/02/22-rdf-syntax-ns#">
      <rdf:Description rdf:about=""/>
   </rdf:RDF>
</x:xmpmeta>
                                                                                                    
                                                                                                    
                                                                                                    
                                                                                                    
                                                                                                    
                                                                                                    
                                                                                                    
                                                                                                    
                                                                                                    
                                                                                                    
                                                                                                    
                                                                                                    
                                                                                                    
                                                                                                    
                                                                                                    
                                                                                                    
                                                                                                    
                                                                                                    
                                                                                                    
                                                                                                    
                           
<?xpacket end="w"?></metadata>
<defs>
    <style>
      .cls-1 {
        fill: #fff;
      }

      .cls-1, .cls-2, .cls-3 {
        fill-rule: evenodd;
      }

      .cls-2 {
        fill: #ffd703;
      }

      .cls-3 {
        fill: #1d1e20;
      }
    </style>
  </defs>
  <path id="Token_Sales" data-name="Token Sales" class="cls-1" d="M67.25,44h0.962V35.732h3.2V34.9H64.052v0.832h3.2V44Zm7.579,0.065a3.555,3.555,0,0,0,1.781-.448,3.225,3.225,0,0,0,1.242-1.242,3.812,3.812,0,0,0,0-3.588,3.182,3.182,0,0,0-1.242-1.235,3.809,3.809,0,0,0-3.562,0A3.224,3.224,0,0,0,71.8,38.787a3.764,3.764,0,0,0,0,3.588,3.269,3.269,0,0,0,1.248,1.242,3.553,3.553,0,0,0,1.781.448h0Zm0-.819a2.579,2.579,0,0,1-1.306-.332,2.352,2.352,0,0,1-.91-0.942,3.084,3.084,0,0,1,0-2.782,2.354,2.354,0,0,1,.91-0.942,2.74,2.74,0,0,1,2.613,0,2.313,2.313,0,0,1,.9.942,3.139,3.139,0,0,1,0,2.782,2.312,2.312,0,0,1-.9.942,2.581,2.581,0,0,1-1.306.332h0ZM85.476,44h1.131l-3.2-4.043,2.925-2.8H85.19l-4.082,3.731V34.354H80.185V44h0.923V42.05l1.612-1.482Zm8.216-3.419a3.7,3.7,0,0,0-.429-1.8,3.135,3.135,0,0,0-1.183-1.229,3.307,3.307,0,0,0-1.7-.442,3.34,3.34,0,0,0-1.709.442,3.154,3.154,0,0,0-1.2,1.235,3.663,3.663,0,0,0-.436,1.794,3.537,3.537,0,0,0,.455,1.794,3.232,3.232,0,0,0,1.267,1.242,3.8,3.8,0,0,0,1.865.448,3.846,3.846,0,0,0,1.5-.286,2.928,2.928,0,0,0,1.138-.832l-0.52-.6a2.555,2.555,0,0,1-.923.67,2.95,2.95,0,0,1-1.17.227,2.718,2.718,0,0,1-1.872-.657,2.444,2.444,0,0,1-.819-1.723h5.72ZM90.377,37.9a2.343,2.343,0,0,1,1.671.63,2.478,2.478,0,0,1,.761,1.645H87.959a2.475,2.475,0,0,1,.76-1.645,2.325,2.325,0,0,1,1.657-.63h0Zm8.684-.793a3.351,3.351,0,0,0-1.553.345,2.567,2.567,0,0,0-1.046.968V37.162H95.577V44H96.5V40.412a2.48,2.48,0,0,1,.644-1.813,2.337,2.337,0,0,1,1.749-.657,2,2,0,0,1,1.521.559,2.268,2.268,0,0,1,.533,1.625V44h0.923V40.035a2.92,2.92,0,0,0-.761-2.177,2.793,2.793,0,0,0-2.047-.748h0Zm11.427,6.968a4.755,4.755,0,0,0,1.885-.332,2.491,2.491,0,0,0,1.137-.9,2.241,2.241,0,0,0,.371-1.255,1.927,1.927,0,0,0-.429-1.319,2.658,2.658,0,0,0-1.047-.728,13.576,13.576,0,0,0-1.618-.487q-0.846-.208-1.346-0.384a2.169,2.169,0,0,1-.832-0.507,1.186,1.186,0,0,1-.331-0.877,1.431,1.431,0,0,1,.6-1.19,2.942,2.942,0,0,1,1.8-.462,4.571,4.571,0,0,1,1.274.189,4.489,4.489,0,0,1,1.222.566l0.325-.767a4.4,4.4,0,0,0-1.294-.592,5.506,5.506,0,0,0-1.527-.214,4.573,4.573,0,0,0-1.872.338,2.489,2.489,0,0,0-1.118.9,2.267,2.267,0,0,0-.364,1.255,1.954,1.954,0,0,0,.435,1.339,2.682,2.682,0,0,0,1.047.735,13.988,13.988,0,0,0,1.638.5,13.175,13.175,0,0,1,1.339.383,2.244,2.244,0,0,1,.812.5,1.165,1.165,0,0,1,.332.871,1.382,1.382,0,0,1-.611,1.163,3.092,3.092,0,0,1-1.833.449,4.8,4.8,0,0,1-1.69-.306,3.6,3.6,0,0,1-1.313-.8l-0.377.741a3.563,3.563,0,0,0,1.436.858,5.849,5.849,0,0,0,1.944.325h0Zm7.682-6.968a4.864,4.864,0,0,0-1.534.24,3.7,3.7,0,0,0-1.248.683l0.416,0.689a3.152,3.152,0,0,1,1.027-.592,3.671,3.671,0,0,1,1.248-.215,2.04,2.04,0,0,1,1.443.462,1.75,1.75,0,0,1,.494,1.346v0.416h-2.171a3.085,3.085,0,0,0-2.008.533,1.747,1.747,0,0,0-.631,1.4,1.765,1.765,0,0,0,.676,1.443,2.815,2.815,0,0,0,1.82.546,3.207,3.207,0,0,0,1.437-.3,2.114,2.114,0,0,0,.916-0.832V44h0.884V39.762a2.586,2.586,0,0,0-.715-1.983,2.893,2.893,0,0,0-2.054-.669h0Zm-0.325,6.227a2.072,2.072,0,0,1-1.274-.345,1.119,1.119,0,0,1-.455-0.943q0-1.222,1.755-1.222h2.145v1.118a2.133,2.133,0,0,1-.832,1.034,2.429,2.429,0,0,1-1.339.358h0Zm5.6,0.663h0.923V34.354h-0.923V44Zm9.464-3.419a3.7,3.7,0,0,0-.429-1.8,3.131,3.131,0,0,0-1.183-1.229,3.3,3.3,0,0,0-1.7-.442,3.341,3.341,0,0,0-1.709.442,3.153,3.153,0,0,0-1.2,1.235,3.658,3.658,0,0,0-.436,1.794,3.542,3.542,0,0,0,.455,1.794,3.237,3.237,0,0,0,1.268,1.242,3.793,3.793,0,0,0,1.865.448,3.849,3.849,0,0,0,1.5-.286,2.922,2.922,0,0,0,1.137-.832l-0.52-.6a2.548,2.548,0,0,1-.923.67,2.947,2.947,0,0,1-1.17.227A2.718,2.718,0,0,1,128,42.59a2.444,2.444,0,0,1-.819-1.723h5.72ZM129.6,37.9a2.343,2.343,0,0,1,1.671.63,2.475,2.475,0,0,1,.76,1.645h-4.849a2.476,2.476,0,0,1,.761-1.645,2.325,2.325,0,0,1,1.657-.63h0Zm7.033,6.162a3.557,3.557,0,0,0,2.074-.526,1.654,1.654,0,0,0,.747-1.423,1.467,1.467,0,0,0-.351-1.04,1.931,1.931,0,0,0-.845-0.533,11.945,11.945,0,0,0-1.313-.312A10.145,10.145,0,0,1,135.9,40a1.557,1.557,0,0,1-.63-0.344,0.809,0.809,0,0,1-.254-0.624,0.956,0.956,0,0,1,.449-0.819A2.336,2.336,0,0,1,136.8,37.9a3.451,3.451,0,0,1,2.015.585l0.4-.741a3.653,3.653,0,0,0-1.092-.462,5.163,5.163,0,0,0-1.326-.175,3.212,3.212,0,0,0-1.989.546,1.69,1.69,0,0,0-.715,1.4,1.534,1.534,0,0,0,.358,1.079,1.964,1.964,0,0,0,.864.552,11.425,11.425,0,0,0,1.339.319,8.959,8.959,0,0,1,1,.215,1.646,1.646,0,0,1,.624.325,0.741,0.741,0,0,1,.247.591,0.93,0.93,0,0,1-.448.826,2.584,2.584,0,0,1-1.385.292,4.285,4.285,0,0,1-1.352-.215,3.5,3.5,0,0,1-1.079-.553l-0.416.728a3.427,3.427,0,0,0,1.19.6,5.24,5.24,0,0,0,1.592.24h0Z"/>
  <path id="Crypterio" class="cls-1" d="M74.36,26.36a10.625,10.625,0,0,0,8.61-3.57l-2.94-3.15c-1.65,1.5-3.12,2.46-5.52,2.46-3.6,0-6.09-3-6.09-6.6,0-3.66,2.55-6.6,6.09-6.6a7.269,7.269,0,0,1,5.4,2.34l2.76-3.18A11.077,11.077,0,0,0,63.59,15.5,10.614,10.614,0,0,0,74.36,26.36ZM84.98,26h4.56V20.06c0-3.84,1.86-5.67,4.89-5.67h0.24V9.621c-2.7-.12-4.2,1.32-5.13,3.54V9.921H84.98V26Zm15.179,4.89c2.73,0,4.05-1.23,5.28-4.5l6.18-16.469h-4.74l-3.51,10.95L99.71,9.921H94.88l6.3,16.139a1.523,1.523,0,0,1-1.59,1.05,4.144,4.144,0,0,1-1.95-.63l-1.53,3.3A7.549,7.549,0,0,0,100.159,30.89Zm12.96-.09h4.56V23.9a6.175,6.175,0,0,0,5.01,2.4c3.81,0,7.32-2.94,7.32-8.31,0-5.43-3.57-8.37-7.32-8.37a5.905,5.905,0,0,0-5.01,2.61V9.921h-4.56V30.8Zm8.4-8.37c-2.13,0-3.9-1.77-3.9-4.44,0-2.73,1.77-4.5,3.9-4.5s3.93,1.77,3.93,4.44C125.449,20.69,123.649,22.43,121.519,22.43Zm16.08,3.84a6.723,6.723,0,0,0,3.6-.93V21.68a4.638,4.638,0,0,1-2.25.57,1.321,1.321,0,0,1-1.47-1.56v-6.87h3.78v-3.9h-3.78V5.811h-4.56v4.11H131v3.9h1.92v7.62C132.919,25.16,134.809,26.27,137.6,26.27Zm12.99,0.09a8.042,8.042,0,0,0,6.569-3l-2.61-2.31a5.269,5.269,0,0,1-3.9,1.65,3.729,3.729,0,0,1-3.929-3.15h11.189c0.03-.42.06-0.84,0.06-1.2,0-4.56-2.46-8.73-7.829-8.73-4.68,0-7.95,3.78-7.95,8.37A8.057,8.057,0,0,0,150.589,26.36Zm-3.93-9.66c0.36-2.07,1.59-3.42,3.48-3.42,1.919,0,3.119,1.38,3.389,3.42h-6.869Zm13.5,9.3h4.559V20.06c0-3.84,1.86-5.67,4.89-5.67h0.24V9.621c-2.7-.12-4.2,1.32-5.13,3.54V9.921h-4.559V26Zm11.43-17.849h4.8V4.1h-4.8v4.05ZM171.709,26h4.559V9.921h-4.559V26Zm15.539,0.36a8.376,8.376,0,1,0-8.67-8.37A8.439,8.439,0,0,0,187.248,26.36Zm0.06-3.93a4.272,4.272,0,0,1-4.23-4.44,4.137,4.137,0,0,1,4.17-4.44,4.272,4.272,0,0,1,4.23,4.44A4.137,4.137,0,0,1,187.308,22.43Z"/>
  <path class="cls-2" d="M25,0A25,25,0,1,1,0,25,25,25,0,0,1,25,0Zm0,4A21,21,0,1,1,4,25,21,21,0,0,1,25,4Zm0,2A19,19,0,1,1,6,25,19,19,0,0,1,25,6Z"/>
  <path id="C" class="cls-3" d="M29.225,19.5a5.1,5.1,0,0,0-3.463-1.427,4.68,4.68,0,0,0-2.545.748,5.133,5.133,0,0,0-1.879,2.2,6.619,6.619,0,0,0-.382,1.055h2.089V24.04H20.663c-0.005.133-.018,0.26-0.018,0.4A9.959,9.959,0,0,0,20.772,26h2.274v1.957h-1.7a7.794,7.794,0,0,0,.892,1.609,4.954,4.954,0,0,0,4.171,2.148,5.952,5.952,0,0,0,3.154-.929,10.971,10.971,0,0,0,3.267-3.09L35,29.286a16.078,16.078,0,0,1-3.867,3.977,10.934,10.934,0,0,1-6.024,1.732,9.585,9.585,0,0,1-8.56-4.974,10.193,10.193,0,0,1-.867-2.066H13.474L12.649,26h2.638a11.066,11.066,0,0,1-.068-1.117c0-.286.029-0.561,0.05-0.84H11.824L11,22.082h4.593a9.727,9.727,0,0,1,.923-2.254,9.3,9.3,0,0,1,3.53-3.554A9.876,9.876,0,0,1,25.026,15a9.927,9.927,0,0,1,4.89,1.163l0.462-.831h1.989l1.919,6.943-2.608.748A12.99,12.99,0,0,0,29.225,19.5Z"/>
</svg>
