<svg xmlns="http://www.w3.org/2000/svg" width="196" height="50" viewBox="0 0 196 50">
  <metadata><?xpacket begin="﻿" id="W5M0MpCehiHzreSzNTczkc9d"?>
<x:xmpmeta xmlns:x="adobe:ns:meta/" x:xmptk="Adobe XMP Core 5.6-c138 79.159824, 2016/09/14-01:09:01        ">
   <rdf:RDF xmlns:rdf="http://www.w3.org/1999/02/22-rdf-syntax-ns#">
      <rdf:Description rdf:about=""/>
   </rdf:RDF>
</x:xmpmeta>
                                                                                                    
                                                                                                    
                                                                                                    
                                                                                                    
                                                                                                    
                                                                                                    
                                                                                                    
                                                                                                    
                                                                                                    
                                                                                                    
                                                                                                    
                                                                                                    
                                                                                                    
                                                                                                    
                                                                                                    
                                                                                                    
                                                                                                    
                                                                                                    
                                                                                                    
                                                                                                    
                           
<?xpacket end="w"?></metadata>
<defs>
    <style>
      .cls-1 {
        fill: #fff;
      }

      .cls-1, .cls-2, .cls-3 {
        fill-rule: evenodd;
      }

      .cls-2 {
        fill: #ffc40c;
      }

      .cls-3 {
        fill: #26211d;
      }
    </style>
  </defs>
  <path id="Cryptocurrency_Blog" data-name="Cryptocurrency Blog" class="cls-1" d="M69.262,34.872a4.761,4.761,0,0,0-2.38.612,4.678,4.678,0,0,0-1.723,1.657,4.318,4.318,0,0,0-.638,2.295,4.455,4.455,0,0,0,.632,2.323,4.691,4.691,0,0,0,4.072,2.291,4.555,4.555,0,0,0,1.809-.378,5.386,5.386,0,0,0,1.574-1.025l-0.641-.717a3.952,3.952,0,0,1-1.247.806,3.8,3.8,0,0,1-1.444.286,3.741,3.741,0,0,1-1.863-.479,3.573,3.573,0,0,1-1.346-1.3,3.555,3.555,0,0,1,0-3.609,3.587,3.587,0,0,1,1.343-1.3,3.736,3.736,0,0,1,1.866-.479,3.635,3.635,0,0,1,1.45.3,3.94,3.94,0,0,1,1.241.838l0.628-.793a4.956,4.956,0,0,0-1.536-.974,4.742,4.742,0,0,0-1.8-.352h0Zm6.146,3.8V37.151H74.4V44h1.009V40.363a2.459,2.459,0,0,1,.743-1.635,2.363,2.363,0,0,1,1.714-.593V37.113a2.8,2.8,0,0,0-1.492.409,2.6,2.6,0,0,0-.965,1.146h0Zm6.432,6.31,3.142-7.827H83.941L81.77,42.807,79.5,37.151H78.431l2.837,6.8-0.292.635a1.77,1.77,0,0,1-.524.717,1.149,1.149,0,0,1-.721.248,1.642,1.642,0,0,1-.965-0.324l-0.425.844a2.212,2.212,0,0,0,1.441.508,1.911,1.911,0,0,0,1.209-.4,2.875,2.875,0,0,0,.847-1.2h0Zm8.12-7.865a3.1,3.1,0,0,0-1.577.394,2.673,2.673,0,0,0-1.057,1.124V37.151H86.31V46.52h1.016V42.534A2.806,2.806,0,0,0,88.4,43.641a3.106,3.106,0,0,0,1.59.4,3.3,3.3,0,0,0,1.7-.435,2.979,2.979,0,0,0,1.149-1.222,4.117,4.117,0,0,0-.006-3.593,3.043,3.043,0,0,0-1.162-1.235,3.3,3.3,0,0,0-1.711-.441h0Zm-0.178,6a2.478,2.478,0,0,1-1.276-.327,2.278,2.278,0,0,1-.87-0.9,2.938,2.938,0,0,1,0-2.631,2.243,2.243,0,0,1,.87-0.911,2.5,2.5,0,0,1,1.276-.324,2.424,2.424,0,0,1,1.257.33,2.324,2.324,0,0,1,.873.908,2.692,2.692,0,0,1,.314,1.308,2.728,2.728,0,0,1-.314,1.314,2.289,2.289,0,0,1-.873.911,2.441,2.441,0,0,1-1.257.327h0Zm8.85,0.413-0.286-.819a2.03,2.03,0,0,1-1.092.355,0.848,0.848,0,0,1-.686-0.27,1.355,1.355,0,0,1-.229-0.879V38.192h2.171V37.354l-2.171.019V35.564h-1v1.809H94.354v0.819h0.984V42.1a2.013,2.013,0,0,0,.476,1.463,1.7,1.7,0,0,0,1.269.486,2.786,2.786,0,0,0,1.549-.521h0Zm4.273-6.4a3.674,3.674,0,0,0-1.8.435,3.1,3.1,0,0,0-1.235,1.219,3.58,3.58,0,0,0-.441,1.787,3.624,3.624,0,0,0,.441,1.8A3.133,3.133,0,0,0,101.11,43.6a3.87,3.87,0,0,0,3.589,0,3.159,3.159,0,0,0,1.235-1.228,3.605,3.605,0,0,0,.444-1.8,3.567,3.567,0,0,0-.444-1.784A3.117,3.117,0,0,0,104.7,37.56a3.657,3.657,0,0,0-1.793-.435h0Zm0,0.92a2.508,2.508,0,0,1,1.266.324,2.255,2.255,0,0,1,.88.9,2.708,2.708,0,0,1,.311,1.314,2.745,2.745,0,0,1-.311,1.32,2.275,2.275,0,0,1-.876.9,2.628,2.628,0,0,1-2.539,0,2.261,2.261,0,0,1-.876-0.9,2.733,2.733,0,0,1-.311-1.32,2.7,2.7,0,0,1,.311-1.311,2.246,2.246,0,0,1,.876-0.9,2.5,2.5,0,0,1,1.269-.324h0Zm8.069-.92a3.614,3.614,0,0,0-1.777.435,3.1,3.1,0,0,0-1.228,1.219,3.607,3.607,0,0,0-.441,1.8,3.675,3.675,0,0,0,.434,1.8,3.094,3.094,0,0,0,1.2,1.222,3.509,3.509,0,0,0,1.759.435,3.84,3.84,0,0,0,1.571-.311,3.2,3.2,0,0,0,1.171-.87l-0.584-.628a2.412,2.412,0,0,1-.908.66,3.083,3.083,0,0,1-1.212.228,2.419,2.419,0,0,1-1.257-.327,2.3,2.3,0,0,1-.863-0.9,2.925,2.925,0,0,1,0-2.625,2.23,2.23,0,0,1,.863-0.892,2.476,2.476,0,0,1,1.257-.317,2.838,2.838,0,0,1,2.037.794l0.559-.717a3.233,3.233,0,0,0-1.127-.743,3.873,3.873,0,0,0-1.457-.267h0Zm10.533,0.025H120.5v3.364a2.655,2.655,0,0,1-.6,1.8,2.107,2.107,0,0,1-1.654.708,1.877,1.877,0,0,1-1.39-.508,1.911,1.911,0,0,1-.508-1.416V37.151h-1.009v4.221a2.708,2.708,0,0,0,.682,1.952,2.472,2.472,0,0,0,1.876.714,2.59,2.59,0,0,0,2.6-1.587V44h1.01V37.151Zm3.55,1.517V37.151h-1.01V44h1.01V40.363a2.46,2.46,0,0,1,.742-1.635,2.363,2.363,0,0,1,1.714-.593V37.113a2.8,2.8,0,0,0-1.492.409,2.6,2.6,0,0,0-.964,1.146h0Zm4.895,0V37.151h-1.009V44h1.009V40.363a2.46,2.46,0,0,1,.743-1.635,2.362,2.362,0,0,1,1.714-.593V37.113a2.8,2.8,0,0,0-1.492.409,2.6,2.6,0,0,0-.965,1.146h0Zm6.616-1.542a3.577,3.577,0,0,0-1.771.435,3.075,3.075,0,0,0-1.216,1.219,3.646,3.646,0,0,0-.434,1.8,3.705,3.705,0,0,0,.428,1.8,3.043,3.043,0,0,0,1.2,1.222,3.567,3.567,0,0,0,1.777.435,3.954,3.954,0,0,0,1.552-.3,3.361,3.361,0,0,0,1.2-.844l-0.558-.6a2.828,2.828,0,0,1-.946.635,3.054,3.054,0,0,1-1.175.222,2.385,2.385,0,0,1-2.482-2.184h5.586A4.09,4.09,0,0,0,139,38.157a2.917,2.917,0,0,0-2.431-1.031h0Zm2.26,3.015H134.15a2.4,2.4,0,0,1,.765-1.562A2.349,2.349,0,0,1,136.544,38a2.273,2.273,0,0,1,1.615.578,2.2,2.2,0,0,1,.67,1.568h0Zm6.381-3.028a2.681,2.681,0,0,0-2.654,1.542v-1.5h-1.009V44h1.009V40.318a2.489,2.489,0,0,1,.7-1.584,2.219,2.219,0,0,1,1.606-.612,1.933,1.933,0,0,1,1.421.508,1.9,1.9,0,0,1,.515,1.416V44h1.015V39.773a2.677,2.677,0,0,0-.689-1.952,2.546,2.546,0,0,0-1.913-.708h0Zm7.682,0.013a3.618,3.618,0,0,0-1.778.435,3.111,3.111,0,0,0-1.228,1.219,3.607,3.607,0,0,0-.441,1.8,3.664,3.664,0,0,0,.435,1.8,3.094,3.094,0,0,0,1.2,1.222,3.505,3.505,0,0,0,1.758.435,3.836,3.836,0,0,0,1.571-.311,3.193,3.193,0,0,0,1.171-.87L155,42.229a2.409,2.409,0,0,1-.907.66,3.084,3.084,0,0,1-1.213.228,2.419,2.419,0,0,1-1.257-.327,2.3,2.3,0,0,1-.863-0.9,2.925,2.925,0,0,1,0-2.625,2.23,2.23,0,0,1,.863-0.892,2.476,2.476,0,0,1,1.257-.317,2.842,2.842,0,0,1,2.038.794l0.558-.717a3.229,3.229,0,0,0-1.126-.743,3.876,3.876,0,0,0-1.457-.267h0Zm6.781,7.852,3.142-7.827h-1.041L159.6,42.807l-2.273-5.656h-1.066l2.837,6.8-0.292.635a1.77,1.77,0,0,1-.523.717,1.15,1.15,0,0,1-.721.248,1.645,1.645,0,0,1-.965-0.324l-0.425.844a2.213,2.213,0,0,0,1.441.508,1.911,1.911,0,0,0,1.209-.4,2.874,2.874,0,0,0,.848-1.2h0ZM171.679,34.9h-3.834V44h3.9a3.926,3.926,0,0,0,2.409-.657,2.144,2.144,0,0,0,.872-1.812,2.234,2.234,0,0,0-.546-1.549,2.464,2.464,0,0,0-1.536-.755,2.081,2.081,0,0,0,1.235-.7,2.057,2.057,0,0,0,.441-1.346,2,2,0,0,0-.781-1.673,3.438,3.438,0,0,0-2.158-.606h0Zm-2.793,1h2.742a2.373,2.373,0,0,1,1.429.375,1.247,1.247,0,0,1,.507,1.066,1.3,1.3,0,0,1-.507,1.1,2.328,2.328,0,0,1-1.429.384h-2.742V35.9Zm0,3.916h2.742a3.086,3.086,0,0,1,1.724.413,1.313,1.313,0,0,1,.619,1.155,1.375,1.375,0,0,1-.613,1.2,3.023,3.023,0,0,1-1.73.422h-2.742V39.817ZM178.155,44V34.352H177.14V44h1.015Zm5.378-6.874a3.677,3.677,0,0,0-1.8.435,3.1,3.1,0,0,0-1.235,1.219,3.581,3.581,0,0,0-.441,1.787,3.625,3.625,0,0,0,.441,1.8,3.133,3.133,0,0,0,1.235,1.228,3.87,3.87,0,0,0,3.589,0,3.159,3.159,0,0,0,1.235-1.228,3.605,3.605,0,0,0,.444-1.8,3.567,3.567,0,0,0-.444-1.784,3.117,3.117,0,0,0-1.235-1.222,3.654,3.654,0,0,0-1.793-.435h0Zm0,0.92a2.514,2.514,0,0,1,1.267.324,2.259,2.259,0,0,1,.879.9,2.708,2.708,0,0,1,.311,1.314,2.745,2.745,0,0,1-.311,1.32,2.275,2.275,0,0,1-.876.9,2.628,2.628,0,0,1-2.539,0,2.261,2.261,0,0,1-.876-0.9,2.733,2.733,0,0,1-.311-1.32,2.7,2.7,0,0,1,.311-1.311,2.246,2.246,0,0,1,.876-0.9,2.5,2.5,0,0,1,1.269-.324h0Zm11.282-.9H193.8v1.39a2.662,2.662,0,0,0-1.032-1.06,3.3,3.3,0,0,0-3.129.054,2.915,2.915,0,0,0-1.092,1.162,3.572,3.572,0,0,0-.39,1.692,3.624,3.624,0,0,0,.4,1.714,2.909,2.909,0,0,0,1.107,1.177,3.11,3.11,0,0,0,1.619.422,3,3,0,0,0,1.507-.368,2.536,2.536,0,0,0,1.013-1.06v1.035a2.232,2.232,0,0,1-.676,1.7,2.508,2.508,0,0,1-1.793.638,3.608,3.608,0,0,1-1.225-.225,3.825,3.825,0,0,1-1.08-.644l-0.463.781a4.613,4.613,0,0,0,2.806.984,3.927,3.927,0,0,0,1.806-.4,2.893,2.893,0,0,0,1.209-1.136,3.367,3.367,0,0,0,.432-1.73V37.151Zm-3.358,5.694a2.328,2.328,0,0,1-1.206-.314,2.246,2.246,0,0,1-.838-0.863,2.515,2.515,0,0,1-.305-1.241,2.56,2.56,0,0,1,.305-1.257,2.217,2.217,0,0,1,.838-0.863,2.5,2.5,0,0,1,2.418,0,2.182,2.182,0,0,1,.832.863,2.612,2.612,0,0,1,.3,1.257,2.572,2.572,0,0,1-.3,1.238,2.2,2.2,0,0,1-.832.866,2.342,2.342,0,0,1-1.212.314h0Z"/>
  <path id="Crypterio" class="cls-1" d="M74.36,26.36a10.625,10.625,0,0,0,8.61-3.57l-2.94-3.15c-1.65,1.5-3.12,2.46-5.52,2.46-3.6,0-6.09-3-6.09-6.6,0-3.66,2.55-6.6,6.09-6.6a7.269,7.269,0,0,1,5.4,2.34l2.76-3.18A11.077,11.077,0,0,0,63.59,15.5,10.614,10.614,0,0,0,74.36,26.36ZM84.98,26h4.56V20.06c0-3.84,1.86-5.67,4.89-5.67h0.24V9.621c-2.7-.12-4.2,1.32-5.13,3.54V9.921H84.98V26Zm15.179,4.89c2.73,0,4.05-1.23,5.28-4.5l6.18-16.469h-4.74l-3.51,10.95L99.71,9.921H94.88l6.3,16.139a1.523,1.523,0,0,1-1.59,1.05,4.144,4.144,0,0,1-1.95-.63l-1.53,3.3A7.549,7.549,0,0,0,100.159,30.89Zm12.96-.09h4.56V23.9a6.175,6.175,0,0,0,5.01,2.4c3.81,0,7.32-2.94,7.32-8.31,0-5.43-3.57-8.37-7.32-8.37a5.905,5.905,0,0,0-5.01,2.61V9.921h-4.56V30.8Zm8.4-8.37c-2.13,0-3.9-1.77-3.9-4.44,0-2.73,1.77-4.5,3.9-4.5s3.93,1.77,3.93,4.44C125.449,20.69,123.649,22.43,121.519,22.43Zm16.08,3.84a6.723,6.723,0,0,0,3.6-.93V21.68a4.638,4.638,0,0,1-2.25.57,1.321,1.321,0,0,1-1.47-1.56v-6.87h3.78v-3.9h-3.78V5.811h-4.56v4.11H131v3.9h1.92v7.62C132.919,25.16,134.809,26.27,137.6,26.27Zm12.99,0.09a8.042,8.042,0,0,0,6.569-3l-2.61-2.31a5.269,5.269,0,0,1-3.9,1.65,3.729,3.729,0,0,1-3.929-3.15h11.189c0.03-.42.06-0.84,0.06-1.2,0-4.56-2.46-8.73-7.829-8.73-4.68,0-7.95,3.78-7.95,8.37A8.057,8.057,0,0,0,150.589,26.36Zm-3.93-9.66c0.36-2.07,1.59-3.42,3.48-3.42,1.919,0,3.119,1.38,3.389,3.42h-6.869Zm13.5,9.3h4.559V20.06c0-3.84,1.86-5.67,4.89-5.67h0.24V9.621c-2.7-.12-4.2,1.32-5.13,3.54V9.921h-4.559V26Zm11.43-17.849h4.8V4.1h-4.8v4.05ZM171.709,26h4.559V9.921h-4.559V26Zm15.539,0.36a8.376,8.376,0,1,0-8.67-8.37A8.439,8.439,0,0,0,187.248,26.36Zm0.06-3.93a4.272,4.272,0,0,1-4.23-4.44,4.137,4.137,0,0,1,4.17-4.44,4.272,4.272,0,0,1,4.23,4.44A4.137,4.137,0,0,1,187.308,22.43Z"/>
  <path class="cls-2" d="M25,0A25,25,0,1,1,0,25,25,25,0,0,1,25,0Zm0,4A21,21,0,1,1,4,25,21,21,0,0,1,25,4Zm0,2A19,19,0,1,1,6,25,19,19,0,0,1,25,6Z"/>
  <path id="C" class="cls-3" d="M29.225,19.505a5.107,5.107,0,0,0-3.463-1.427,4.678,4.678,0,0,0-2.545.749,5.134,5.134,0,0,0-1.879,2.2,6.636,6.636,0,0,0-.382,1.055h2.089v1.957H20.663c-0.005.133-.018,0.26-0.018,0.4A9.966,9.966,0,0,0,20.771,26h2.274v1.957h-1.7a7.81,7.81,0,0,0,.892,1.609,4.953,4.953,0,0,0,4.171,2.148,5.949,5.949,0,0,0,3.154-.928,10.979,10.979,0,0,0,3.267-3.09L35,29.288a16.077,16.077,0,0,1-3.867,3.977A10.938,10.938,0,0,1,25.11,35a9.587,9.587,0,0,1-8.56-4.974,10.2,10.2,0,0,1-.867-2.067H13.474L12.649,26h2.638a11.063,11.063,0,0,1-.068-1.117c0-.287.029-0.562,0.05-0.84H11.824L11,22.085h4.593a9.732,9.732,0,0,1,.923-2.254,9.306,9.306,0,0,1,3.53-3.554A9.874,9.874,0,0,1,25.026,15a9.932,9.932,0,0,1,4.89,1.164l0.462-.831h1.989l1.919,6.942-2.608.748A13,13,0,0,0,29.225,19.505Z"/>
</svg>
