<svg xmlns="http://www.w3.org/2000/svg" width="196" height="50" viewBox="0 0 196 50">
  <metadata><?xpacket begin="﻿" id="W5M0MpCehiHzreSzNTczkc9d"?>
<x:xmpmeta xmlns:x="adobe:ns:meta/" x:xmptk="Adobe XMP Core 5.6-c138 79.159824, 2016/09/14-01:09:01        ">
   <rdf:RDF xmlns:rdf="http://www.w3.org/1999/02/22-rdf-syntax-ns#">
      <rdf:Description rdf:about=""/>
   </rdf:RDF>
</x:xmpmeta>
                                                                                                    
                                                                                                    
                                                                                                    
                                                                                                    
                                                                                                    
                                                                                                    
                                                                                                    
                                                                                                    
                                                                                                    
                                                                                                    
                                                                                                    
                                                                                                    
                                                                                                    
                                                                                                    
                                                                                                    
                                                                                                    
                                                                                                    
                                                                                                    
                                                                                                    
                                                                                                    
                           
<?xpacket end="w"?></metadata>
<defs>
    <style>
      .cls-1 {
        fill: #fff;
      }

      .cls-1, .cls-2 {
        fill-rule: evenodd;
      }

      .cls-2 {
        fill: #3baae2;
      }
    </style>
  </defs>
  <path id="Corporation" class="cls-1" d="M69.434,44.078a5.029,5.029,0,0,0,1.879-.345,3.932,3.932,0,0,0,1.463-.995l-0.611-.611a3.576,3.576,0,0,1-2.691,1.092,3.953,3.953,0,0,1-1.963-.494,3.607,3.607,0,0,1-1.385-1.352,3.948,3.948,0,0,1,0-3.848,3.609,3.609,0,0,1,1.385-1.352,3.955,3.955,0,0,1,1.963-.494,3.625,3.625,0,0,1,2.691,1.079l0.611-.611a3.883,3.883,0,0,0-1.456-.988,5.064,5.064,0,0,0-1.872-.338,5,5,0,0,0-2.444.6,4.367,4.367,0,0,0-1.71,1.657,4.866,4.866,0,0,0,0,4.745A4.376,4.376,0,0,0,67,43.48a4.965,4.965,0,0,0,2.438.6h0Zm7.7-.013a3.554,3.554,0,0,0,1.781-.448,3.225,3.225,0,0,0,1.242-1.242,3.812,3.812,0,0,0,0-3.588,3.182,3.182,0,0,0-1.242-1.235,3.809,3.809,0,0,0-3.562,0A3.225,3.225,0,0,0,74.1,38.787a3.764,3.764,0,0,0,0,3.588,3.27,3.27,0,0,0,1.248,1.242,3.553,3.553,0,0,0,1.781.448h0Zm0-.819a2.579,2.579,0,0,1-1.306-.332,2.353,2.353,0,0,1-.91-0.942,3.084,3.084,0,0,1,0-2.782,2.354,2.354,0,0,1,.91-0.942,2.74,2.74,0,0,1,2.613,0,2.313,2.313,0,0,1,.9.942,3.139,3.139,0,0,1,0,2.782,2.311,2.311,0,0,1-.9.942,2.58,2.58,0,0,1-1.306.332h0ZM83.37,38.5V37.162H82.486V44h0.923V40.516a2.641,2.641,0,0,1,.611-1.859,2.184,2.184,0,0,1,1.69-.663l0.221,0.013v-0.9a3.291,3.291,0,0,0-1.593.351,2.236,2.236,0,0,0-.968,1.04h0Zm7.748-1.391a3.224,3.224,0,0,0-1.541.364,2.844,2.844,0,0,0-1.1,1.04V37.162H87.595v9.36h0.923V42.713a2.844,2.844,0,0,0,1.1,1.008,3.233,3.233,0,0,0,1.5.344,3.5,3.5,0,0,0,1.748-.435A3.127,3.127,0,0,0,94.082,42.4a3.941,3.941,0,0,0,0-3.627,3.117,3.117,0,0,0-1.222-1.229,3.512,3.512,0,0,0-1.742-.435h0Zm-0.065,6.136a2.58,2.58,0,0,1-1.306-.332,2.353,2.353,0,0,1-.91-0.942,2.87,2.87,0,0,1-.331-1.391,2.832,2.832,0,0,1,.331-1.385,2.412,2.412,0,0,1,.91-0.943,2.682,2.682,0,0,1,2.606,0,2.4,2.4,0,0,1,.916.943,2.832,2.832,0,0,1,.332,1.385,2.87,2.87,0,0,1-.332,1.391,2.34,2.34,0,0,1-.916.942,2.591,2.591,0,0,1-1.3.332h0ZM99.2,44.065a3.556,3.556,0,0,0,1.781-.448,3.228,3.228,0,0,0,1.241-1.242,3.809,3.809,0,0,0,0-3.588,3.184,3.184,0,0,0-1.241-1.235,3.81,3.81,0,0,0-3.562,0,3.224,3.224,0,0,0-1.248,1.235,3.764,3.764,0,0,0,0,3.588,3.269,3.269,0,0,0,1.248,1.242,3.553,3.553,0,0,0,1.781.448h0Zm0-.819a2.579,2.579,0,0,1-1.306-.332,2.352,2.352,0,0,1-.91-0.942,3.084,3.084,0,0,1,0-2.782,2.354,2.354,0,0,1,.91-0.942,2.74,2.74,0,0,1,2.613,0,2.312,2.312,0,0,1,.9.942,3.139,3.139,0,0,1,0,2.782,2.311,2.311,0,0,1-.9.942,2.578,2.578,0,0,1-1.306.332h0Zm6.24-4.745V37.162H104.56V44h0.923V40.516a2.638,2.638,0,0,1,.611-1.859,2.182,2.182,0,0,1,1.69-.663l0.221,0.013v-0.9a3.292,3.292,0,0,0-1.593.351,2.232,2.232,0,0,0-.968,1.04h0Zm6.6-1.391a4.855,4.855,0,0,0-1.534.24,3.682,3.682,0,0,0-1.248.683l0.416,0.689a3.142,3.142,0,0,1,1.027-.592,3.663,3.663,0,0,1,1.248-.215,2.043,2.043,0,0,1,1.443.462,1.754,1.754,0,0,1,.494,1.346v0.416h-2.171a3.086,3.086,0,0,0-2.009.533,1.879,1.879,0,0,0,.046,2.847,2.811,2.811,0,0,0,1.82.546,3.205,3.205,0,0,0,1.436-.3,2.117,2.117,0,0,0,.917-0.832V44h0.884V39.762a2.59,2.59,0,0,0-.715-1.983,2.9,2.9,0,0,0-2.054-.669h0Zm-0.325,6.227a2.07,2.07,0,0,1-1.274-.345,1.116,1.116,0,0,1-.455-0.943q0-1.222,1.755-1.222h2.145v1.118a2.138,2.138,0,0,1-.832,1.034,2.432,2.432,0,0,1-1.339.358h0Zm8.879-.416a1.369,1.369,0,0,1-.462.26,1.7,1.7,0,0,1-.552.091,1.159,1.159,0,0,1-.878-0.319,1.29,1.29,0,0,1-.3-0.929V37.942h2.08v-0.78h-2.08V35.667h-0.923v1.495H116.26v0.78h1.222v4.134a1.811,1.811,0,0,0,2,1.989,2.593,2.593,0,0,0,.8-0.123,1.752,1.752,0,0,0,.644-0.357Zm2,1.079h0.923V37.162H122.6V44Zm0.468-8.333a0.666,0.666,0,0,0,.676-0.676,0.6,0.6,0,0,0-.2-0.449,0.667,0.667,0,0,0-.481-0.188,0.653,0.653,0,0,0-.481.2A0.624,0.624,0,0,0,122.4,35a0.638,0.638,0,0,0,.195.468,0.653,0.653,0,0,0,.481.2h0Zm5.824,8.4a3.557,3.557,0,0,0,1.781-.448,3.228,3.228,0,0,0,1.241-1.242,3.809,3.809,0,0,0,0-3.588,3.184,3.184,0,0,0-1.241-1.235,3.809,3.809,0,0,0-3.562,0,3.221,3.221,0,0,0-1.248,1.235,3.764,3.764,0,0,0,0,3.588,3.266,3.266,0,0,0,1.248,1.242,3.551,3.551,0,0,0,1.781.448h0Zm0-.819a2.581,2.581,0,0,1-1.307-.332,2.351,2.351,0,0,1-.91-0.942,3.088,3.088,0,0,1,0-2.782,2.352,2.352,0,0,1,.91-0.942,2.74,2.74,0,0,1,2.613,0,2.312,2.312,0,0,1,.9.942,3.139,3.139,0,0,1,0,2.782,2.311,2.311,0,0,1-.9.942,2.58,2.58,0,0,1-1.306.332h0Zm8.84-6.136a3.351,3.351,0,0,0-1.554.345,2.567,2.567,0,0,0-1.046.968V37.162h-0.884V44h0.923V40.412a2.479,2.479,0,0,1,.643-1.813,2.338,2.338,0,0,1,1.749-.657,2,2,0,0,1,1.521.559,2.268,2.268,0,0,1,.533,1.625V44h0.923V40.035a2.92,2.92,0,0,0-.761-2.177,2.793,2.793,0,0,0-2.047-.748h0Z"/>
  <path id="Crypterio" class="cls-1" d="M74.36,26.36a10.625,10.625,0,0,0,8.61-3.57l-2.94-3.15c-1.65,1.5-3.12,2.46-5.52,2.46-3.6,0-6.09-3-6.09-6.6,0-3.66,2.55-6.6,6.09-6.6a7.269,7.269,0,0,1,5.4,2.34l2.76-3.18A11.077,11.077,0,0,0,63.59,15.5,10.614,10.614,0,0,0,74.36,26.36ZM84.98,26h4.56V20.06c0-3.84,1.86-5.67,4.89-5.67h0.24V9.621c-2.7-.12-4.2,1.32-5.13,3.54V9.921H84.98V26Zm15.179,4.89c2.73,0,4.05-1.23,5.28-4.5l6.18-16.469h-4.74l-3.51,10.95L99.71,9.921H94.88l6.3,16.139a1.523,1.523,0,0,1-1.59,1.05,4.144,4.144,0,0,1-1.95-.63l-1.53,3.3A7.549,7.549,0,0,0,100.159,30.89Zm12.96-.09h4.56V23.9a6.175,6.175,0,0,0,5.01,2.4c3.81,0,7.32-2.94,7.32-8.31,0-5.43-3.57-8.37-7.32-8.37a5.905,5.905,0,0,0-5.01,2.61V9.921h-4.56V30.8Zm8.4-8.37c-2.13,0-3.9-1.77-3.9-4.44,0-2.73,1.77-4.5,3.9-4.5s3.93,1.77,3.93,4.44C125.449,20.69,123.649,22.43,121.519,22.43Zm16.08,3.84a6.723,6.723,0,0,0,3.6-.93V21.68a4.638,4.638,0,0,1-2.25.57,1.321,1.321,0,0,1-1.47-1.56v-6.87h3.78v-3.9h-3.78V5.811h-4.56v4.11H131v3.9h1.92v7.62C132.919,25.16,134.809,26.27,137.6,26.27Zm12.99,0.09a8.042,8.042,0,0,0,6.569-3l-2.61-2.31a5.269,5.269,0,0,1-3.9,1.65,3.729,3.729,0,0,1-3.929-3.15h11.189c0.03-.42.06-0.84,0.06-1.2,0-4.56-2.46-8.73-7.829-8.73-4.68,0-7.95,3.78-7.95,8.37A8.057,8.057,0,0,0,150.589,26.36Zm-3.93-9.66c0.36-2.07,1.59-3.42,3.48-3.42,1.919,0,3.119,1.38,3.389,3.42h-6.869Zm13.5,9.3h4.559V20.06c0-3.84,1.86-5.67,4.89-5.67h0.24V9.621c-2.7-.12-4.2,1.32-5.13,3.54V9.921h-4.559V26Zm11.43-17.849h4.8V4.1h-4.8v4.05ZM171.709,26h4.559V9.921h-4.559V26Zm15.539,0.36a8.376,8.376,0,1,0-8.67-8.37A8.439,8.439,0,0,0,187.248,26.36Zm0.06-3.93a4.272,4.272,0,0,1-4.23-4.44,4.137,4.137,0,0,1,4.17-4.44,4.272,4.272,0,0,1,4.23,4.44A4.137,4.137,0,0,1,187.308,22.43Z"/>
  <path class="cls-2" d="M25,0A25,25,0,1,1,0,25,25,25,0,0,1,25,0Zm0,4A21,21,0,1,1,4,25,21,21,0,0,1,25,4Zm0,2A19,19,0,1,1,6,25,19,19,0,0,1,25,6Z"/>
  <path id="C" class="cls-1" d="M29.225,19.505a5.107,5.107,0,0,0-3.463-1.427,4.678,4.678,0,0,0-2.545.749,5.135,5.135,0,0,0-1.879,2.2,6.625,6.625,0,0,0-.382,1.055h2.089v1.957H20.663c-0.005.133-.018,0.26-0.018,0.4A9.966,9.966,0,0,0,20.771,26h2.274v1.957h-1.7a7.8,7.8,0,0,0,.892,1.609,4.953,4.953,0,0,0,4.171,2.147,5.952,5.952,0,0,0,3.154-.928,10.979,10.979,0,0,0,3.267-3.09L35,29.288a16.073,16.073,0,0,1-3.867,3.977A10.936,10.936,0,0,1,25.11,35a9.587,9.587,0,0,1-8.56-4.974,10.193,10.193,0,0,1-.867-2.067H13.474L12.649,26h2.638a11.067,11.067,0,0,1-.068-1.117c0-.286.029-0.562,0.05-0.84H11.824L11,22.085h4.593a9.729,9.729,0,0,1,.923-2.254,9.3,9.3,0,0,1,3.53-3.554A9.873,9.873,0,0,1,25.026,15a9.931,9.931,0,0,1,4.89,1.164l0.462-.831h1.989l1.919,6.942-2.608.748A13,13,0,0,0,29.225,19.505Z"/>
</svg>
