<svg xmlns="http://www.w3.org/2000/svg" width="196" height="50" viewBox="0 0 196 50">
  <metadata><?xpacket begin="﻿" id="W5M0MpCehiHzreSzNTczkc9d"?>
<x:xmpmeta xmlns:x="adobe:ns:meta/" x:xmptk="Adobe XMP Core 5.6-c138 79.159824, 2016/09/14-01:09:01        ">
   <rdf:RDF xmlns:rdf="http://www.w3.org/1999/02/22-rdf-syntax-ns#">
      <rdf:Description rdf:about=""/>
   </rdf:RDF>
</x:xmpmeta>
                                                                                                    
                                                                                                    
                                                                                                    
                                                                                                    
                                                                                                    
                                                                                                    
                                                                                                    
                                                                                                    
                                                                                                    
                                                                                                    
                                                                                                    
                                                                                                    
                                                                                                    
                                                                                                    
                                                                                                    
                                                                                                    
                                                                                                    
                                                                                                    
                                                                                                    
                                                                                                    
                           
<?xpacket end="w"?></metadata>
<defs>
    <style>
      .cls-1 {
        fill: #fff;
      }

      .cls-1, .cls-2, .cls-3 {
        fill-rule: evenodd;
      }

      .cls-2 {
        fill: #ffc40c;
      }

      .cls-3 {
        fill: #262626;
      }
    </style>
  </defs>
  <path id="ICO_Advisor" data-name="ICO Advisor" class="cls-1" d="M64.3,44h1.248V34.9H64.3V44Zm10.439-6.916,0.741-.9a4.553,4.553,0,0,0-1.54-1.008,4.9,4.9,0,0,0-1.84-.357,4.841,4.841,0,0,0-2.405.611,4.556,4.556,0,0,0-1.723,1.67,4.477,4.477,0,0,0-.63,2.334,4.593,4.593,0,0,0,2.327,4.037,4.777,4.777,0,0,0,4.225.234,5.074,5.074,0,0,0,1.6-1.059l-0.754-.819a4.062,4.062,0,0,1-1.222.8,3.563,3.563,0,0,1-1.4.292,3.5,3.5,0,1,1,1.417-6.688,3.76,3.76,0,0,1,1.209.852h0ZM81,34.822a4.867,4.867,0,0,0-2.418.611,4.6,4.6,0,0,0-1.729,1.67,4.443,4.443,0,0,0-.637,2.334,4.51,4.51,0,0,0,.637,2.346,4.606,4.606,0,0,0,1.736,1.69,5.018,5.018,0,0,0,4.823,0,4.61,4.61,0,0,0,1.736-1.69,4.513,4.513,0,0,0,.637-2.346,4.446,4.446,0,0,0-.637-2.334,4.6,4.6,0,0,0-1.736-1.67A4.879,4.879,0,0,0,81,34.822h0Zm0.013,1.118a3.4,3.4,0,0,1,1.749.468,3.538,3.538,0,0,1,1.274,1.267,3.519,3.519,0,0,1,0,3.529,3.572,3.572,0,0,1-1.274,1.281,3.363,3.363,0,0,1-1.749.474,3.43,3.43,0,0,1-1.761-.474,3.588,3.588,0,0,1-1.293-1.281,3.478,3.478,0,0,1,0-3.529,3.554,3.554,0,0,1,1.293-1.267,3.468,3.468,0,0,1,1.761-.468h0ZM99.1,44l-4.03-9.1h-1.3L89.728,44h1.313l0.949-2.21h4.8L97.749,44H99.1Zm-4.719-7.761,1.924,4.42H92.484Zm10.777-1.885v4.134a2.594,2.594,0,0,0-1.04-1.053,3.167,3.167,0,0,0-1.547-.364,3.3,3.3,0,0,0-1.71.442A3.059,3.059,0,0,0,99.7,38.742a3.791,3.791,0,0,0-.416,1.8,3.9,3.9,0,0,0,.416,1.826,3.082,3.082,0,0,0,1.163,1.248,3.286,3.286,0,0,0,1.723.448,3.053,3.053,0,0,0,1.527-.37,2.731,2.731,0,0,0,1.047-1.059V44h1.209V34.354h-1.209Zm-2.327,8.671a2.315,2.315,0,0,1-1.2-.312,2.187,2.187,0,0,1-.825-0.871,2.809,2.809,0,0,1,0-2.522,2.236,2.236,0,0,1,.825-0.877,2.278,2.278,0,0,1,1.2-.319,2.313,2.313,0,0,1,1.2.312,2.2,2.2,0,0,1,.826.871,2.663,2.663,0,0,1,.3,1.274,2.634,2.634,0,0,1-.3,1.261,2.2,2.2,0,0,1-.826.871,2.313,2.313,0,0,1-1.2.312h0ZM110.346,44h1.261l2.678-6.877h-1.222L111.009,42.8l-2.067-5.681h-1.287Zm5.083,0h1.209V37.123h-1.209V44Zm0.6-9.62a0.721,0.721,0,0,0-.54.221,0.837,0.837,0,0,0,0,1.118,0.769,0.769,0,0,0,1.079,0,0.834,0.834,0,0,0,0-1.118,0.72,0.72,0,0,0-.539-0.221h0Zm6.72,4.264,0.442-.923a3.681,3.681,0,0,0-1.046-.474,4.388,4.388,0,0,0-1.229-.175,3.036,3.036,0,0,0-1.755.481,1.633,1.633,0,0,0-.7,1.443,1.6,1.6,0,0,0,.306,1.014,1.985,1.985,0,0,0,.741.591,7.766,7.766,0,0,0,1.124.4,5.232,5.232,0,0,1,1.164.468,0.77,0.77,0,0,1,.383.7,0.736,0.736,0,0,1-.364.676,1.834,1.834,0,0,1-.962.221,3.518,3.518,0,0,1-1.228-.234,3.215,3.215,0,0,1-1.06-.624l-0.455.884a3.388,3.388,0,0,0,1.216.7,4.562,4.562,0,0,0,1.488.247,3.142,3.142,0,0,0,1.827-.507,1.894,1.894,0,0,0,.416-2.548,2.078,2.078,0,0,0-.774-0.611,8.77,8.77,0,0,0-1.17-.416,5.392,5.392,0,0,1-1.124-.435,0.687,0.687,0,0,1-.371-0.631,0.674,0.674,0,0,1,.332-0.617,1.674,1.674,0,0,1,.877-0.2,3.382,3.382,0,0,1,.982.156,4.124,4.124,0,0,1,.942.416h0Zm5.083-1.56a3.74,3.74,0,0,0-1.839.442,3.18,3.18,0,0,0-1.248,1.228,3.861,3.861,0,0,0,0,3.614,3.177,3.177,0,0,0,1.248,1.229,4.022,4.022,0,0,0,3.666,0,3.166,3.166,0,0,0,1.248-1.235,3.855,3.855,0,0,0,0-3.608,3.18,3.18,0,0,0-1.248-1.228,3.715,3.715,0,0,0-1.827-.442h0Zm0,1.053a2.29,2.29,0,0,1,1.19.312,2.157,2.157,0,0,1,.819.864,2.64,2.64,0,0,1,.292,1.255,2.706,2.706,0,0,1-.292,1.274,2.1,2.1,0,0,1-.819.864,2.328,2.328,0,0,1-1.19.306,2.351,2.351,0,0,1-1.2-.306,2.1,2.1,0,0,1-.819-0.864,2.707,2.707,0,0,1-.293-1.274,2.641,2.641,0,0,1,.293-1.255,2.157,2.157,0,0,1,.819-0.864,2.313,2.313,0,0,1,1.2-.312h0Zm6.422,0.468V37.123h-1.209V44h1.209V40.373a2.211,2.211,0,0,1,2.444-2.119v-1.17a2.862,2.862,0,0,0-1.482.4,2.487,2.487,0,0,0-.962,1.124h0Z"/>
  <path id="Crypterio" class="cls-1" d="M74.36,26.36a10.625,10.625,0,0,0,8.61-3.57l-2.94-3.15c-1.65,1.5-3.12,2.46-5.52,2.46-3.6,0-6.09-3-6.09-6.6,0-3.66,2.55-6.6,6.09-6.6a7.269,7.269,0,0,1,5.4,2.34l2.76-3.18A11.077,11.077,0,0,0,63.59,15.5,10.614,10.614,0,0,0,74.36,26.36ZM84.98,26h4.56V20.06c0-3.84,1.86-5.67,4.89-5.67h0.24V9.621c-2.7-.12-4.2,1.32-5.13,3.54V9.921H84.98V26Zm15.179,4.89c2.73,0,4.05-1.23,5.28-4.5l6.18-16.469h-4.74l-3.51,10.95L99.71,9.921H94.88l6.3,16.139a1.523,1.523,0,0,1-1.59,1.05,4.144,4.144,0,0,1-1.95-.63l-1.53,3.3A7.549,7.549,0,0,0,100.159,30.89Zm12.96-.09h4.56V23.9a6.175,6.175,0,0,0,5.01,2.4c3.81,0,7.32-2.94,7.32-8.31,0-5.43-3.57-8.37-7.32-8.37a5.905,5.905,0,0,0-5.01,2.61V9.921h-4.56V30.8Zm8.4-8.37c-2.13,0-3.9-1.77-3.9-4.44,0-2.73,1.77-4.5,3.9-4.5s3.93,1.77,3.93,4.44C125.449,20.69,123.649,22.43,121.519,22.43Zm16.08,3.84a6.723,6.723,0,0,0,3.6-.93V21.68a4.638,4.638,0,0,1-2.25.57,1.321,1.321,0,0,1-1.47-1.56v-6.87h3.78v-3.9h-3.78V5.811h-4.56v4.11H131v3.9h1.92v7.62C132.919,25.16,134.809,26.27,137.6,26.27Zm12.99,0.09a8.042,8.042,0,0,0,6.569-3l-2.61-2.31a5.269,5.269,0,0,1-3.9,1.65,3.729,3.729,0,0,1-3.929-3.15h11.189c0.03-.42.06-0.84,0.06-1.2,0-4.56-2.46-8.73-7.829-8.73-4.68,0-7.95,3.78-7.95,8.37A8.057,8.057,0,0,0,150.589,26.36Zm-3.93-9.66c0.36-2.07,1.59-3.42,3.48-3.42,1.919,0,3.119,1.38,3.389,3.42h-6.869Zm13.5,9.3h4.559V20.06c0-3.84,1.86-5.67,4.89-5.67h0.24V9.621c-2.7-.12-4.2,1.32-5.13,3.54V9.921h-4.559V26Zm11.43-17.849h4.8V4.1h-4.8v4.05ZM171.709,26h4.559V9.921h-4.559V26Zm15.539,0.36a8.376,8.376,0,1,0-8.67-8.37A8.439,8.439,0,0,0,187.248,26.36Zm0.06-3.93a4.272,4.272,0,0,1-4.23-4.44,4.137,4.137,0,0,1,4.17-4.44,4.272,4.272,0,0,1,4.23,4.44A4.137,4.137,0,0,1,187.308,22.43Z"/>
  <path class="cls-2" d="M25,0A25,25,0,1,1,0,25,25,25,0,0,1,25,0Zm0,4A21,21,0,1,1,4,25,21,21,0,0,1,25,4Zm0,2A19,19,0,1,1,6,25,19,19,0,0,1,25,6Z"/>
  <path id="C" class="cls-3" d="M29.225,19.506a5.106,5.106,0,0,0-3.463-1.428,4.677,4.677,0,0,0-2.545.749,5.133,5.133,0,0,0-1.879,2.2,6.621,6.621,0,0,0-.382,1.055h2.089v1.957H20.663c-0.005.133-.018,0.26-0.018,0.4A9.956,9.956,0,0,0,20.771,26h2.274v1.957h-1.7a7.805,7.805,0,0,0,.892,1.609,4.954,4.954,0,0,0,4.171,2.148,5.951,5.951,0,0,0,3.154-.928,10.98,10.98,0,0,0,3.267-3.09L35,29.289a16.08,16.08,0,0,1-3.867,3.977A10.937,10.937,0,0,1,25.11,35a9.586,9.586,0,0,1-8.56-4.974,10.193,10.193,0,0,1-.867-2.067H13.474L12.649,26h2.638a11.063,11.063,0,0,1-.068-1.117c0-.286.029-0.562,0.05-0.84H11.824L11,22.085h4.593a9.73,9.73,0,0,1,.923-2.254,9.307,9.307,0,0,1,3.53-3.554A9.874,9.874,0,0,1,25.026,15a9.93,9.93,0,0,1,4.89,1.164l0.462-.831h1.989l1.919,6.942-2.608.748A13,13,0,0,0,29.225,19.506Z"/>
</svg>
