<svg xmlns="http://www.w3.org/2000/svg" width="216" height="50" viewBox="0 0 216 50">
  <metadata><?xpacket begin="﻿" id="W5M0MpCehiHzreSzNTczkc9d"?>
<x:xmpmeta xmlns:x="adobe:ns:meta/" x:xmptk="Adobe XMP Core 5.6-c138 79.159824, 2016/09/14-01:09:01        ">
   <rdf:RDF xmlns:rdf="http://www.w3.org/1999/02/22-rdf-syntax-ns#">
      <rdf:Description rdf:about=""/>
   </rdf:RDF>
</x:xmpmeta>
                                                                                                    
                                                                                                    
                                                                                                    
                                                                                                    
                                                                                                    
                                                                                                    
                                                                                                    
                                                                                                    
                                                                                                    
                                                                                                    
                                                                                                    
                                                                                                    
                                                                                                    
                                                                                                    
                                                                                                    
                                                                                                    
                                                                                                    
                                                                                                    
                                                                                                    
                                                                                                    
                           
<?xpacket end="w"?></metadata>
<defs>
    <style>
      .cls-1 {
        fill: #261100;
      }

      .cls-1, .cls-2 {
        fill-rule: evenodd;
      }

      .cls-2 {
        fill: #ffc40c;
      }
    </style>
  </defs>
  <path id="Crypterio" class="cls-1" d="M64.52,36h9.99c4.74,0,7.86-1.92,7.86-5.76,0-2.88-1.5-4.29-3.93-5.22a4.884,4.884,0,0,0,2.76-4.53,4.859,4.859,0,0,0-1.44-3.63A7.581,7.581,0,0,0,74.27,15H64.52V36Zm4.5-12.509v-4.44h4.56c1.95,0,3.03.78,3.03,2.16,0,1.62-1.29,2.28-3.33,2.28H69.02Zm0,8.46V27.33h5.34c2.37,0,3.42.87,3.42,2.28,0,1.62-1.23,2.34-3.27,2.34H69.02ZM84.71,36h4.56V14.1H84.71V36Zm15.539,0.36a8.376,8.376,0,1,0-8.67-8.37A8.439,8.439,0,0,0,100.249,36.36Zm0.06-3.93a4.272,4.272,0,0,1-4.23-4.44,4.137,4.137,0,0,1,4.17-4.44,4.272,4.272,0,0,1,4.23,4.44A4.137,4.137,0,0,1,100.309,32.43Zm18.359,3.93a8.1,8.1,0,0,0,6.57-2.94l-2.67-2.7a5.093,5.093,0,0,1-3.69,1.71c-2.49,0-4.08-1.98-4.08-4.44,0-2.43,1.62-4.44,3.9-4.44a4.916,4.916,0,0,1,3.75,1.59l2.67-2.7a7.91,7.91,0,0,0-6.39-2.82A8.37,8.37,0,1,0,118.668,36.36Zm8.341-.36h4.559V31.11l1.59-1.68,4.2,6.57h5.22l-6.33-9.75,6.12-6.33h-5.46l-5.34,5.85V14.1h-4.559V36Zm23.4,0.36a8.1,8.1,0,0,0,6.57-2.94l-2.67-2.7a5.093,5.093,0,0,1-3.69,1.71c-2.49,0-4.079-1.98-4.079-4.44,0-2.43,1.619-4.44,3.9-4.44a4.916,4.916,0,0,1,3.75,1.59l2.67-2.7a7.91,7.91,0,0,0-6.39-2.82A8.37,8.37,0,1,0,150.408,36.36Zm8.341-.36h4.559V27.03c0-2.16,1.11-3.27,2.85-3.27s2.76,1.11,2.76,3.27V36h4.56V25.59c0-3.69-2.01-5.97-5.46-5.97a5.689,5.689,0,0,0-4.71,2.58V14.1h-4.559V36ZM180.8,36.3a6.183,6.183,0,0,0,4.86-2.04V36h4.41V26.67a7.008,7.008,0,0,0-1.74-5.13,7.424,7.424,0,0,0-5.43-1.8,14.187,14.187,0,0,0-6.24,1.29l1.14,3.48a11.828,11.828,0,0,1,4.44-.87c2.28,0,3.45,1.05,3.45,2.94v0.27a11.426,11.426,0,0,0-3.93-.66c-3.81,0-6.48,1.62-6.48,5.13C175.278,34.56,177.768,36.3,180.8,36.3Zm1.38-3.15c-1.47,0-2.49-.72-2.49-1.95,0-1.5,1.2-2.28,3.15-2.28a7.071,7.071,0,0,1,2.91.6v0.81C185.748,31.98,184.308,33.15,182.178,33.15Zm10.71-15h4.8V14.1h-4.8v4.05ZM193.008,36h4.56V19.921h-4.56V36Zm7.65,0h4.559V27.03c0-2.16,1.11-3.27,2.85-3.27s2.76,1.11,2.76,3.27V36h4.56V25.59c0-3.69-2.01-5.97-5.46-5.97a5.689,5.689,0,0,0-4.71,2.58v-2.28h-4.559V36Z"/>
  <path class="cls-2" d="M25,0A25,25,0,1,1,0,25,25,25,0,0,1,25,0Zm0,4A21,21,0,1,1,4,25,21,21,0,0,1,25,4Zm0,2A19,19,0,1,1,6,25,19,19,0,0,1,25,6Z"/>
  <path id="_" data-name="₿" class="cls-1" d="M29.317,37.1V34.436a5.256,5.256,0,0,0,2.425-.876,5,5,0,0,0,1.619-1.923,5.531,5.531,0,0,0,.59-2.469,4.482,4.482,0,0,0-.914-2.806,4.9,4.9,0,0,0-2.615-1.688,4.412,4.412,0,0,0,2.615-4.037,4.213,4.213,0,0,0-.571-2.177,4.7,4.7,0,0,0-3.148-2.279V13.412H26.486v2.552q-0.33-.012-0.686-0.013H23.808V13.412H20.977v2.539H18.361V34.563h2.615V37.1h2.831V34.563H24.7q0.99,0,1.79-.013V37.1h2.831ZM25.153,26.451a12.768,12.768,0,0,1,3.332.267,2.3,2.3,0,0,1,1.174.851,2.428,2.428,0,0,1,.406,1.422,2.287,2.287,0,0,1-.527,1.581,2.329,2.329,0,0,1-1.365.743,17,17,0,0,1-2.577.114H22.119V26.451h3.034Zm-0.876-7.4q2.653,0,3.212.063a2.156,2.156,0,0,1,1.416.654,2.043,2.043,0,0,1,.476,1.4,1.965,1.965,0,0,1-.552,1.454,2.484,2.484,0,0,1-1.517.666q-0.533.064-2.729,0.064H22.119v-4.3h2.158Z"/>
</svg>
